<?xml version="1.0" encoding="utf-8"?>
<!-- Generator: Adobe Illustrator 15.0.0, SVG Export Plug-In . SVG Version: 6.00 Build 0)  -->
<!DOCTYPE svg PUBLIC "-//W3C//DTD SVG 1.1//EN" "http://www.w3.org/Graphics/SVG/1.1/DTD/svg11.dtd">
<svg version="1.1" id="Capa_1" xmlns="http://www.w3.org/2000/svg" xmlns:xlink="http://www.w3.org/1999/xlink" x="0px" y="0px"
	 width="1104px" height="1096px" viewBox="0 0 1104 1096" enable-background="new 0 0 1104 1096" xml:space="preserve">
<g id="timer_1_">
	<g>
		<g>
			<g>
				<g>
					<path fill="#C6C6C5" d="M507.449,94.371c-2.566-24.404-5.132-48.808-7.699-73.212c-0.164-1.556-0.327-3.112-0.491-4.668
						c-0.2-1.904-3.202-1.923-3,0c2.566,24.404,5.132,48.808,7.699,73.212c0.164,1.556,0.327,3.112,0.491,4.668
						C504.649,96.275,507.651,96.294,507.449,94.371L507.449,94.371z"/>
				</g>
			</g>
			<g>
				<g>
					<path fill="#C6C6C5" d="M610.806,1077.751c-2.565-24.403-5.13-48.807-7.695-73.21c-0.163-1.556-0.327-3.112-0.49-4.668
						c-0.2-1.903-3.202-1.923-3,0c2.565,24.403,5.13,48.807,7.695,73.21c0.163,1.556,0.327,3.112,0.49,4.668
						C608.006,1079.654,611.008,1079.674,610.806,1077.751L610.806,1077.751z"/>
				</g>
			</g>
			<g>
				<g>
					<path fill="#C6C6C5" d="M460.331,101.429c-5.103-24.003-10.205-48.006-15.308-72.009c-0.325-1.53-0.65-3.061-0.976-4.591
						c-0.402-1.892-3.294-1.089-2.893,0.798c5.103,24.003,10.205,48.006,15.308,72.009c0.325,1.53,0.65,3.061,0.976,4.591
						C457.84,104.119,460.732,103.316,460.331,101.429L460.331,101.429z"/>
				</g>
			</g>
			<g>
				<g>
					<path fill="#C6C6C5" d="M665.912,1068.618c-5.102-24.003-10.203-48.007-15.306-72.01c-0.325-1.53-0.65-3.061-0.976-4.591
						c-0.402-1.893-3.294-1.09-2.893,0.797c5.102,24.004,10.203,48.007,15.306,72.01c0.325,1.53,0.65,3.061,0.976,4.591
						C663.422,1071.308,666.313,1070.505,665.912,1068.618L665.912,1068.618z"/>
				</g>
			</g>
			<g>
				<g>
					<path fill="#C6C6C5" d="M414.304,113.76c-7.583-23.338-15.167-46.677-22.75-70.015c-0.483-1.488-0.967-2.976-1.451-4.464
						c-0.595-1.832-3.492-1.047-2.893,0.798c7.583,23.338,15.167,46.677,22.75,70.015c0.483,1.488,0.967,2.976,1.451,4.464
						C412.006,116.39,414.903,115.605,414.304,113.76L414.304,113.76z"/>
				</g>
			</g>
			<g>
				<g>
					<path fill="#C6C6C5" d="M719.857,1054.163c-7.583-23.339-15.166-46.677-22.749-70.015c-0.483-1.488-0.967-2.977-1.45-4.464
						c-0.595-1.832-3.492-1.048-2.893,0.797c7.583,23.339,15.166,46.677,22.749,70.015c0.483,1.488,0.967,2.977,1.45,4.464
						C717.56,1056.792,720.457,1056.008,719.857,1054.163L719.857,1054.163z"/>
				</g>
			</g>
			<g>
				<g>
					<path fill="#C6C6C5" d="M369.666,130.48c-9.981-22.418-19.962-44.837-29.943-67.255c-0.636-1.43-1.272-2.859-1.909-4.288
						c-0.786-1.765-3.37-0.237-2.591,1.514c9.981,22.418,19.962,44.837,29.943,67.255c0.636,1.43,1.272,2.859,1.909,4.288
						C367.86,133.759,370.445,132.231,369.666,130.48L369.666,130.48z"/>
				</g>
			</g>
			<g>
				<g>
					<path fill="#C6C6C5" d="M771.843,1033.791c-9.979-22.418-19.958-44.836-29.937-67.253c-0.637-1.43-1.272-2.859-1.909-4.288
						c-0.785-1.765-3.369-0.237-2.59,1.514c9.979,22.418,19.958,44.836,29.937,67.253c0.637,1.43,1.272,2.859,1.909,4.288
						C770.038,1037.069,772.622,1035.542,771.843,1033.791L771.843,1033.791z"/>
				</g>
			</g>
			<g>
				<g>
					<path fill="#C6C6C5" d="M287.245,178.065c-14.424-19.853-28.848-39.706-43.271-59.558c-0.919-1.266-1.839-2.532-2.759-3.797
						c-1.125-1.549-3.73-0.054-2.591,1.514c14.424,19.853,28.848,39.706,43.271,59.558c0.919,1.266,1.839,2.532,2.759,3.797
						C285.779,181.128,288.384,179.633,287.245,178.065L287.245,178.065z"/>
				</g>
			</g>
			<g>
				<g>
					<path fill="#C6C6C5" d="M868.44,978.021c-14.422-19.853-28.844-39.706-43.267-59.559c-0.919-1.266-1.839-2.531-2.759-3.797
						c-1.125-1.549-3.729-0.055-2.59,1.514c14.422,19.853,28.844,39.706,43.267,59.559c0.919,1.266,1.839,2.531,2.759,3.797
						C866.976,981.083,869.58,979.589,868.44,978.021L868.44,978.021z"/>
				</g>
			</g>
			<g>
				<g>
					<path fill="#C6C6C5" d="M249.976,207.749c-16.419-18.237-32.838-36.474-49.258-54.71c-1.047-1.163-2.094-2.326-3.141-3.488
						c-1.297-1.441-3.412,0.688-2.121,2.121c16.419,18.237,32.838,36.474,49.258,54.71c1.047,1.163,2.094,2.326,3.141,3.488
						C249.151,211.311,251.266,209.182,249.976,207.749L249.976,207.749z"/>
				</g>
			</g>
			<g>
				<g>
					<path fill="#C6C6C5" d="M911.612,942.567c-16.419-18.235-32.837-36.472-49.256-54.707c-1.047-1.163-2.094-2.325-3.141-3.488
						c-1.297-1.44-3.412,0.688-2.121,2.121c16.419,18.235,32.837,36.472,49.256,54.707c1.047,1.163,2.094,2.325,3.141,3.488
						C910.788,946.129,912.903,944.001,911.612,942.567L911.612,942.567z"/>
				</g>
			</g>
			<g>
				<g>
					<path fill="#C6C6C5" d="M216.282,241.442c-18.236-16.42-36.472-32.84-54.708-49.26c-1.163-1.047-2.325-2.094-3.488-3.141
						c-1.433-1.291-3.562,0.824-2.121,2.121c18.236,16.42,36.472,32.84,54.708,49.26c1.163,1.047,2.325,2.094,3.488,3.141
						C215.594,244.854,217.723,242.739,216.282,241.442L216.282,241.442z"/>
				</g>
			</g>
			<g>
				<g>
					<path fill="#C6C6C5" d="M951.104,903.076c-18.237-16.419-36.474-32.838-54.711-49.257c-1.163-1.047-2.325-2.094-3.488-3.141
						c-1.434-1.291-3.562,0.824-2.121,2.121c18.237,16.419,36.474,32.838,54.711,49.257c1.163,1.047,2.325,2.094,3.488,3.141
						C950.417,906.488,952.545,904.373,951.104,903.076L951.104,903.076z"/>
				</g>
			</g>
			<g>
				<g>
					<path fill="#C6C6C5" d="M185.991,278.24c-19.853-14.422-39.705-28.845-59.557-43.268c-1.266-0.919-2.531-1.839-3.797-2.759
						c-1.568-1.139-3.063,1.465-1.515,2.591c19.853,14.422,39.705,28.845,59.557,43.268c1.266,0.919,2.531,1.839,3.797,2.759
						C186.045,281.97,187.54,279.365,185.991,278.24L185.991,278.24z"/>
				</g>
			</g>
			<g>
				<g>
					<path fill="#C6C6C5" d="M985.945,859.442c-19.853-14.425-39.705-28.849-59.558-43.272c-1.266-0.92-2.532-1.84-3.798-2.759
						c-1.568-1.14-3.062,1.465-1.514,2.59c19.853,14.425,39.705,28.849,59.558,43.272c1.266,0.92,2.532,1.84,3.798,2.759
						C986,863.172,987.494,860.567,985.945,859.442L985.945,859.442z"/>
				</g>
			</g>
			<g>
				<g>
					<path fill="#C6C6C5" d="M138.404,360.663c-22.417-9.98-44.833-19.961-67.25-29.942c-1.429-0.636-2.858-1.272-4.288-1.909
						c-1.751-0.779-3.278,1.805-1.514,2.591c22.417,9.98,44.833,19.961,67.25,29.942c1.429,0.636,2.858,1.272,4.288,1.909
						C138.642,364.033,140.169,361.448,138.404,360.663L138.404,360.663z"/>
				</g>
			</g>
			<g>
				<g>
					<path fill="#C6C6C5" d="M1041.717,762.843c-22.418-9.981-44.836-19.962-67.255-29.942c-1.429-0.637-2.858-1.273-4.288-1.909
						c-1.751-0.78-3.278,1.805-1.514,2.59c22.418,9.981,44.836,19.962,67.255,29.942c1.429,0.637,2.858,1.273,4.288,1.909
						C1041.954,766.213,1043.481,763.628,1041.717,762.843L1041.717,762.843z"/>
				</g>
			</g>
			<g>
				<g>
					<path fill="#C6C6C5" d="M120.97,404.996c-23.338-7.583-46.675-15.166-70.013-22.748c-1.488-0.483-2.976-0.967-4.464-1.45
						c-1.845-0.6-2.629,2.297-0.798,2.893c23.338,7.583,46.675,15.166,70.013,22.748c1.488,0.483,2.976,0.967,4.464,1.45
						C122.018,408.488,122.802,405.591,120.97,404.996L120.97,404.996z"/>
				</g>
			</g>
			<g>
				<g>
					<path fill="#C6C6C5" d="M1061.374,710.551c-23.339-7.582-46.677-15.165-70.016-22.747c-1.488-0.483-2.977-0.967-4.465-1.45
						c-1.845-0.6-2.629,2.298-0.797,2.893c23.339,7.582,46.677,15.165,70.016,22.747c1.488,0.483,2.977,0.967,4.465,1.45
						C1062.422,714.043,1063.206,711.146,1061.374,710.551L1061.374,710.551z"/>
				</g>
			</g>
			<g>
				<g>
					<path fill="#C6C6C5" d="M108.636,451.023c-24.002-5.102-48.003-10.204-72.005-15.306c-1.53-0.325-3.061-0.65-4.591-0.976
						c-1.887-0.401-2.689,2.491-0.798,2.893c24.002,5.102,48.003,10.204,72.005,15.306c1.53,0.325,3.061,0.65,4.591,0.976
						C109.725,454.317,110.527,451.425,108.636,451.023L108.636,451.023z"/>
				</g>
			</g>
			<g>
				<g>
					<path fill="#C6C6C5" d="M1075.825,656.607c-24.001-5.103-48.003-10.205-72.004-15.308c-1.53-0.325-3.062-0.65-4.592-0.976
						c-1.887-0.401-2.689,2.49-0.797,2.893c24.001,5.103,48.003,10.205,72.004,15.308c1.53,0.325,3.062,0.65,4.592,0.976
						C1076.915,659.901,1077.718,657.01,1075.825,656.607L1075.825,656.607z"/>
				</g>
			</g>
			<g>
				<g>
					<path fill="#C6C6C5" d="M100.784,498.034c-24.404-2.564-48.808-5.129-73.212-7.694c-1.556-0.164-3.112-0.327-4.668-0.491
						c-1.923-0.202-1.904,2.8,0,3c24.404,2.564,48.808,5.129,73.212,7.694c1.556,0.164,3.112,0.327,4.668,0.491
						C102.707,501.236,102.688,498.234,100.784,498.034L100.784,498.034z"/>
				</g>
			</g>
			<g>
				<g>
					<path fill="#C6C6C5" d="M1084.163,601.395c-24.405-2.566-48.81-5.133-73.215-7.698c-1.556-0.164-3.112-0.327-4.668-0.491
						c-1.923-0.202-1.903,2.8,0,3c24.405,2.566,48.81,5.133,73.215,7.698c1.556,0.164,3.112,0.327,4.668,0.491
						C1086.086,604.597,1086.066,601.595,1084.163,601.395L1084.163,601.395z"/>
				</g>
			</g>
			<g>
				<g>
					<path fill="#C6C6C5" d="M100.784,593.205c-24.404,2.566-48.808,5.133-73.212,7.698c-1.556,0.164-3.112,0.327-4.668,0.491
						c-1.904,0.2-1.923,3.202,0,3c24.404-2.566,48.808-5.133,73.212-7.698c1.556-0.164,3.112-0.327,4.668-0.491
						C102.688,596.005,102.707,593.003,100.784,593.205L100.784,593.205z"/>
				</g>
			</g>
			<g>
				<g>
					<path fill="#C6C6C5" d="M1084.163,489.85c-24.405,2.564-48.81,5.129-73.215,7.694c-1.556,0.164-3.112,0.327-4.668,0.491
						c-1.903,0.2-1.923,3.202,0,3c24.405-2.564,48.81-5.129,73.215-7.694c1.556-0.164,3.112-0.327,4.668-0.491
						C1086.066,492.649,1086.086,489.647,1084.163,489.85L1084.163,489.85z"/>
				</g>
			</g>
			<g>
				<g>
					<path fill="#C6C6C5" d="M107.838,640.324c-24.001,5.103-48.003,10.205-72.004,15.307c-1.53,0.326-3.061,0.651-4.591,0.977
						c-1.892,0.402-1.089,3.294,0.798,2.893c24.001-5.103,48.003-10.205,72.004-15.307c1.53-0.326,3.061-0.651,4.591-0.977
						C110.527,642.814,109.725,639.923,107.838,640.324L107.838,640.324z"/>
				</g>
			</g>
			<g>
				<g>
					<path fill="#C6C6C5" d="M1075.028,434.742c-24.002,5.102-48.003,10.204-72.005,15.305c-1.53,0.325-3.061,0.651-4.591,0.976
						c-1.893,0.402-1.09,3.294,0.797,2.893c24.002-5.102,48.003-10.204,72.005-15.305c1.53-0.325,3.061-0.651,4.591-0.976
						C1077.718,437.233,1076.915,434.341,1075.028,434.742L1075.028,434.742z"/>
				</g>
			</g>
			<g>
				<g>
					<path fill="#C6C6C5" d="M120.172,686.354c-23.337,7.582-46.675,15.164-70.012,22.747c-1.488,0.483-2.976,0.967-4.464,1.45
						c-1.832,0.595-1.047,3.492,0.798,2.893c23.337-7.582,46.675-15.164,70.012-22.747c1.488-0.483,2.976-0.967,4.464-1.45
						C122.802,688.651,122.018,685.754,120.172,686.354L120.172,686.354z"/>
				</g>
			</g>
			<g>
				<g>
					<path fill="#C6C6C5" d="M1060.577,380.798c-23.339,7.583-46.678,15.165-70.017,22.748c-1.488,0.483-2.977,0.967-4.464,1.451
						c-1.832,0.595-1.048,3.492,0.797,2.893c23.339-7.583,46.678-15.165,70.017-22.748c1.488-0.483,2.977-0.967,4.464-1.451
						C1063.206,383.095,1062.422,380.198,1060.577,380.798L1060.577,380.798z"/>
				</g>
			</g>
			<g>
				<g>
					<path fill="#C6C6C5" d="M136.891,730.991c-22.417,9.98-44.833,19.961-67.25,29.942c-1.429,0.636-2.858,1.272-4.288,1.909
						c-1.765,0.785-0.237,3.37,1.514,2.59c22.417-9.98,44.833-19.961,67.25-29.942c1.429-0.636,2.858-1.272,4.288-1.909
						C140.169,732.796,138.642,730.211,136.891,730.991L136.891,730.991z"/>
				</g>
			</g>
			<g>
				<g>
					<path fill="#C6C6C5" d="M1040.203,328.811c-22.419,9.981-44.837,19.962-67.255,29.943c-1.43,0.636-2.859,1.272-4.288,1.909
						c-1.765,0.786-0.237,3.37,1.514,2.591c22.419-9.981,44.837-19.962,67.255-29.943c1.43-0.636,2.859-1.272,4.288-1.909
						C1043.481,330.616,1041.954,328.032,1040.203,328.811L1040.203,328.811z"/>
				</g>
			</g>
			<g>
				<g>
					<path fill="#C6C6C5" d="M184.477,813.411c-19.852,14.424-39.704,28.848-59.556,43.271c-1.266,0.92-2.531,1.84-3.797,2.76
						c-1.548,1.125-0.054,3.729,1.515,2.59c19.852-14.424,39.704-28.848,59.556-43.271c1.266-0.92,2.531-1.84,3.797-2.76
						C187.54,814.876,186.045,812.271,184.477,813.411L184.477,813.411z"/>
				</g>
			</g>
			<g>
				<g>
					<path fill="#C6C6C5" d="M984.432,232.213c-19.853,14.423-39.706,28.845-59.559,43.268c-1.266,0.919-2.531,1.839-3.797,2.758
						c-1.549,1.125-0.055,3.73,1.514,2.591c19.853-14.423,39.706-28.845,59.559-43.268c1.266-0.919,2.531-1.839,3.797-2.758
						C987.494,233.679,986,231.074,984.432,232.213L984.432,232.213z"/>
				</g>
			</g>
			<g>
				<g>
					<path fill="#C6C6C5" d="M214.161,850.679c-18.236,16.419-36.472,32.838-54.708,49.257c-1.163,1.047-2.326,2.094-3.488,3.141
						c-1.44,1.297,0.688,3.412,2.121,2.121c18.236-16.419,36.472-32.838,54.708-49.257c1.163-1.047,2.326-2.094,3.488-3.141
						C217.723,851.503,215.594,849.388,214.161,850.679L214.161,850.679z"/>
				</g>
			</g>
			<g>
				<g>
					<path fill="#C6C6C5" d="M948.983,189.042c-18.237,16.42-36.474,32.84-54.711,49.259c-1.163,1.047-2.325,2.094-3.488,3.141
						c-1.44,1.297,0.688,3.412,2.121,2.121c18.237-16.42,36.474-32.84,54.711-49.259c1.163-1.047,2.325-2.094,3.488-3.141
						C952.545,189.866,950.417,187.751,948.983,189.042L948.983,189.042z"/>
				</g>
			</g>
			<g>
				<g>
					<path fill="#C6C6C5" d="M247.854,884.372c-16.419,18.235-32.838,36.472-49.258,54.707c-1.047,1.163-2.094,2.325-3.141,3.488
						c-1.291,1.434,0.824,3.562,2.121,2.121c16.419-18.235,32.838-36.472,49.258-54.707c1.047-1.163,2.094-2.325,3.141-3.488
						C251.266,885.06,249.151,882.932,247.854,884.372L247.854,884.372z"/>
				</g>
			</g>
			<g>
				<g>
					<path fill="#C6C6C5" d="M909.491,149.551c-16.419,18.236-32.837,36.473-49.256,54.71c-1.047,1.163-2.094,2.325-3.141,3.488
						c-1.291,1.433,0.824,3.562,2.121,2.121c16.419-18.236,32.837-36.473,49.256-54.71c1.047-1.163,2.094-2.325,3.141-3.488
						C912.903,150.239,910.788,148.11,909.491,149.551L909.491,149.551z"/>
				</g>
			</g>
			<g>
				<g>
					<path fill="#C6C6C5" d="M284.654,914.665c-14.423,19.853-28.847,39.705-43.271,59.558c-0.92,1.266-1.839,2.532-2.759,3.798
						c-1.139,1.568,1.465,3.062,2.591,1.514c14.423-19.853,28.847-39.705,43.271-59.558c0.92-1.266,1.839-2.532,2.759-3.798
						C288.384,914.61,285.779,913.116,284.654,914.665L284.654,914.665z"/>
				</g>
			</g>
			<g>
				<g>
					<path fill="#C6C6C5" d="M865.851,114.71c-14.423,19.853-28.845,39.705-43.267,59.558c-0.92,1.266-1.84,2.532-2.759,3.798
						c-1.14,1.568,1.465,3.062,2.59,1.514c14.423-19.853,28.845-39.705,43.267-59.558c0.92-1.266,1.84-2.532,2.759-3.798
						C869.58,114.656,866.976,113.161,865.851,114.71L865.851,114.71z"/>
				</g>
			</g>
			<g>
				<g>
					<path fill="#C6C6C5" d="M367.075,962.25c-9.98,22.417-19.961,44.835-29.942,67.253c-0.636,1.429-1.272,2.858-1.909,4.288
						c-0.779,1.751,1.805,3.278,2.591,1.514c9.98-22.417,19.961-44.835,29.942-67.253c0.636-1.429,1.272-2.858,1.909-4.288
						C370.445,962.013,367.86,960.485,367.075,962.25L367.075,962.25z"/>
				</g>
			</g>
			<g>
				<g>
					<path fill="#C6C6C5" d="M769.253,58.938c-9.979,22.418-19.958,44.836-29.938,67.254c-0.636,1.43-1.272,2.859-1.908,4.289
						c-0.779,1.751,1.805,3.278,2.59,1.514c9.979-22.418,19.958-44.836,29.938-67.254c0.636-1.43,1.272-2.859,1.908-4.289
						C772.622,58.7,770.038,57.173,769.253,58.938L769.253,58.938z"/>
				</g>
			</g>
			<g>
				<g>
					<path fill="#C6C6C5" d="M411.411,979.685c-7.583,23.338-15.167,46.676-22.75,70.014c-0.483,1.488-0.967,2.977-1.45,4.465
						c-0.6,1.845,2.297,2.629,2.893,0.797c7.583-23.338,15.167-46.676,22.75-70.014c0.483-1.488,0.967-2.977,1.45-4.465
						C414.903,978.637,412.006,977.853,411.411,979.685L411.411,979.685z"/>
				</g>
			</g>
			<g>
				<g>
					<path fill="#C6C6C5" d="M716.965,39.281c-7.583,23.338-15.166,46.677-22.749,70.016c-0.483,1.488-0.967,2.976-1.45,4.464
						c-0.6,1.845,2.298,2.629,2.893,0.798c7.583-23.338,15.166-46.677,22.749-70.016c0.483-1.488,0.967-2.976,1.45-4.464
						C720.457,38.233,717.56,37.449,716.965,39.281L716.965,39.281z"/>
				</g>
			</g>
			<g>
				<g>
					<path fill="#C6C6C5" d="M457.438,992.018c-5.103,24.003-10.206,48.006-15.308,72.009c-0.326,1.53-0.651,3.062-0.976,4.592
						c-0.401,1.887,2.491,2.689,2.893,0.797c5.103-24.003,10.206-48.006,15.308-72.009c0.326-1.53,0.651-3.061,0.976-4.592
						C460.732,990.928,457.84,990.125,457.438,992.018L457.438,992.018z"/>
				</g>
			</g>
			<g>
				<g>
					<path fill="#C6C6C5" d="M504.449,999.873c-2.566,24.403-5.132,48.807-7.699,73.21c-0.164,1.556-0.327,3.112-0.491,4.668
						c-0.202,1.923,2.8,1.903,3,0c2.566-24.403,5.132-48.807,7.699-73.21c0.164-1.556,0.327-3.112,0.491-4.668
						C507.651,997.95,504.649,997.97,504.449,999.873L504.449,999.873z"/>
				</g>
			</g>
			<g>
				<g>
					<path fill="#C6C6C5" d="M607.806,16.491c-2.565,24.404-5.13,48.808-7.695,73.212c-0.163,1.556-0.327,3.112-0.49,4.668
						c-0.202,1.923,2.8,1.904,3,0c2.565-24.404,5.13-48.808,7.695-73.212c0.163-1.556,0.327-3.112,0.49-4.668
						C611.008,14.568,608.006,14.587,607.806,16.491L607.806,16.491z"/>
				</g>
			</g>
			<g>
				<g>
					<path fill="#C6C6C5" d="M663.02,24.829c-5.102,24.003-10.204,48.006-15.306,72.009c-0.325,1.531-0.65,3.061-0.976,4.591
						c-0.401,1.887,2.49,2.689,2.893,0.798c5.102-24.003,10.204-48.006,15.306-72.009c0.325-1.531,0.65-3.061,0.976-4.591
						C666.313,23.739,663.422,22.937,663.02,24.829L663.02,24.829z"/>
				</g>
			</g>
		</g>
		<circle fill="none" stroke="#C6C6C5" stroke-width="3" stroke-miterlimit="10" cx="553.534" cy="547.101" r="454.111"/>
		<g>
			<g>
				<g>
					<path fill="#ECECEC" d="M558.035,102.947c0-24.282,0-48.564,0-72.847c0-1.187,0-2.374,0-3.561c0-5.804-9-5.804-9,0
						c0,24.282,0,48.564,0,72.847c0,1.187,0,2.374,0,3.561C549.035,108.751,558.035,108.751,558.035,102.947L558.035,102.947z"/>
				</g>
			</g>
			<g>
				<g>
					<path fill="#ECECEC" d="M556.035,1067.704c0-24.282,0-48.564,0-72.847c0-1.187,0-2.374,0-3.561c0-3.225-5-3.225-5,0
						c0,24.282,0,48.564,0,72.847c0,1.187,0,2.374,0,3.561C551.035,1070.929,556.035,1070.929,556.035,1067.704L556.035,1067.704z"
						/>
				</g>
			</g>
			<g>
				<g>
					<path fill="#ECECEC" d="M333.605,161.191c-12.141-21.028-24.283-42.056-36.424-63.083c-0.593-1.028-1.187-2.056-1.78-3.083
						c-1.611-2.791-5.933-0.274-4.317,2.523c12.141,21.028,24.283,42.056,36.424,63.083c0.593,1.028,1.187,2.056,1.78,3.083
						C330.899,166.505,335.22,163.989,333.605,161.191L333.605,161.191z"/>
				</g>
			</g>
			<g>
				<g>
					<path fill="#ECECEC" d="M815.986,996.696c-12.143-21.029-24.285-42.058-36.427-63.086c-0.594-1.028-1.188-2.057-1.78-3.084
						c-1.611-2.791-5.934-0.274-4.318,2.523c12.143,21.029,24.285,42.058,36.427,63.086c0.594,1.028,1.188,2.057,1.78,3.084
						C813.279,1002.011,817.602,999.494,815.986,996.696L815.986,996.696z"/>
				</g>
			</g>
			<g>
				<g>
					<path fill="#ECECEC" d="M170.128,322.875c-21.029-12.142-42.058-24.284-63.086-36.426c-1.028-0.594-2.056-1.187-3.083-1.781
						c-2.797-1.615-5.314,2.706-2.523,4.317c21.029,12.142,42.058,24.284,63.086,36.426c1.028,0.594,2.056,1.187,3.083,1.781
						C170.402,328.808,172.919,324.487,170.128,322.875L170.128,322.875z"/>
				</g>
			</g>
			<g>
				<g>
					<path fill="#ECECEC" d="M1005.63,805.252c-21.027-12.14-42.055-24.279-63.083-36.419c-1.027-0.593-2.055-1.187-3.083-1.78
						c-2.798-1.614-5.314,2.707-2.523,4.318c21.027,12.14,42.055,24.279,63.083,36.419c1.027,0.593,2.055,1.187,3.083,1.78
						C1005.904,811.185,1008.421,806.863,1005.63,805.252L1005.63,805.252z"/>
				</g>
			</g>
			<g>
				<g>
					<path fill="#ECECEC" d="M109.357,544.62c-24.281,0-48.563,0-72.844,0c-1.187,0-2.374,0-3.561,0c-3.224,0-3.224,5,0,5
						c24.281,0,48.563,0,72.844,0c1.187,0,2.374,0,3.561,0C112.582,549.62,112.582,544.62,109.357,544.62L109.357,544.62z"/>
				</g>
			</g>
			<g>
				<g>
					<path fill="#ECECEC" d="M1074.114,544.62c-24.282,0-48.563,0-72.846,0c-1.187,0-2.374,0-3.561,0c-3.225,0-3.225,5,0,5
						c24.282,0,48.563,0,72.846,0c1.187,0,2.374,0,3.561,0C1077.339,549.62,1077.339,544.62,1074.114,544.62L1074.114,544.62z"/>
				</g>
			</g>
			<g>
				<g>
					<path fill="#ECECEC" d="M167.605,767.053c-21.029,12.141-42.058,24.28-63.086,36.42c-1.028,0.593-2.056,1.187-3.083,1.779
						c-2.791,1.611-0.274,5.933,2.523,4.318c21.029-12.141,42.058-24.28,63.086-36.42c1.028-0.593,2.056-1.187,3.083-1.779
						C172.919,769.76,170.402,765.438,167.605,767.053L167.605,767.053z"/>
				</g>
			</g>
			<g>
				<g>
					<path fill="#ECECEC" d="M1003.106,284.668c-21.027,12.142-42.055,24.284-63.083,36.427c-1.027,0.593-2.056,1.187-3.083,1.78
						c-2.791,1.611-0.274,5.933,2.523,4.317c21.027-12.142,42.055-24.284,63.083-36.427c1.027-0.593,2.056-1.187,3.083-1.78
						C1008.421,287.375,1005.904,283.053,1003.106,284.668L1003.106,284.668z"/>
				</g>
			</g>
			<g>
				<g>
					<path fill="#ECECEC" d="M329.288,930.526c-12.141,21.028-24.283,42.058-36.424,63.086c-0.593,1.028-1.187,2.056-1.78,3.084
						c-1.615,2.798,2.706,5.314,4.317,2.523c12.141-21.028,24.283-42.058,36.424-63.086c0.593-1.028,1.187-2.056,1.78-3.084
						C335.22,930.252,330.899,927.735,329.288,930.526L329.288,930.526z"/>
				</g>
			</g>
			<g>
				<g>
					<path fill="#ECECEC" d="M811.668,95.024c-12.142,21.028-24.284,42.056-36.426,63.083c-0.594,1.028-1.188,2.056-1.781,3.083
						c-1.615,2.797,2.706,5.314,4.318,2.523c12.142-21.028,24.284-42.056,36.426-63.083c0.594-1.028,1.188-2.056,1.781-3.083
						C817.602,94.75,813.28,92.234,811.668,95.024L811.668,95.024z"/>
				</g>
			</g>
		</g>
	</g>
	<g>
		
			<line fill="none" stroke="#00A099" stroke-width="4" stroke-miterlimit="10" x1="554.032" y1="276.416" x2="554.032" y2="229.847"/>
		
			<line fill="none" stroke="#D9D9D9" stroke-width="4" stroke-miterlimit="10" x1="554.032" y1="864.397" x2="554.032" y2="817.828"/>
		
			<line fill="none" stroke="#D9D9D9" stroke-width="4" stroke-miterlimit="10" x1="418.677" y1="312.681" x2="395.395" y2="272.354"/>
		
			<line fill="none" stroke="#D9D9D9" stroke-width="4" stroke-miterlimit="10" x1="712.667" y1="821.889" x2="689.384" y2="781.562"/>
		
			<line fill="none" stroke="#D9D9D9" stroke-width="4" stroke-miterlimit="10" x1="319.59" y1="411.768" x2="279.264" y2="388.483"/>
		<line fill="none" stroke="#D9D9D9" stroke-width="4" stroke-miterlimit="10" x1="828.8" y1="705.759" x2="788.472" y2="682.477"/>
		<line fill="none" stroke="#D9D9D9" stroke-width="4" stroke-miterlimit="10" x1="283.322" y1="547.12" x2="236.756" y2="547.12"/>
		<line fill="none" stroke="#D9D9D9" stroke-width="4" stroke-miterlimit="10" x1="871.304" y1="547.12" x2="824.735" y2="547.12"/>
		
			<line fill="none" stroke="#D9D9D9" stroke-width="4" stroke-miterlimit="10" x1="319.59" y1="682.477" x2="279.264" y2="705.759"/>
		<line fill="none" stroke="#D9D9D9" stroke-width="4" stroke-miterlimit="10" x1="828.8" y1="388.483" x2="788.472" y2="411.768"/>
		
			<line fill="none" stroke="#D9D9D9" stroke-width="4" stroke-miterlimit="10" x1="418.677" y1="781.562" x2="395.395" y2="821.889"/>
		
			<line fill="none" stroke="#D9D9D9" stroke-width="4" stroke-miterlimit="10" x1="712.667" y1="272.354" x2="689.384" y2="312.681"/>
		<path fill="none" stroke="#D9D9D9" stroke-width="2" stroke-miterlimit="10" d="M234.835,547.101
			c0-175.712,142.443-318.153,318.155-318.153c175.708,0,318.151,142.441,318.151,318.153S728.698,865.254,552.99,865.254
			C377.278,865.254,234.835,722.812,234.835,547.101z"/>
	</g>
</g>
</svg>
